<?xml version="1.0" standalone="no"?>
<!DOCTYPE svg PUBLIC "-//W3C//DTD SVG 20010904//EN"
 "http://www.w3.org/TR/2001/REC-SVG-20010904/DTD/svg10.dtd">
<svg version="1.0" xmlns="http://www.w3.org/2000/svg"
 width="500.000000pt" height="500.000000pt" viewBox="0 0 500.000000 500.000000"
 preserveAspectRatio="xMidYMid meet">
<metadata>
Created by potrace 1.14, written by Peter Selinger 2001-2017
</metadata>
<g transform="translate(0.000000,500.000000) scale(0.100000,-0.100000)"
fill="#000000" stroke="none">
<path d="M2105 3858 c-39 -14 -92 -53 -106 -79 -6 -12 -12 -94 -14 -198 -2
-97 -8 -207 -13 -246 -10 -67 -15 -114 -27 -270 -3 -38 -12 -126 -20 -195 -23
-196 -32 -281 -40 -390 -3 -41 -7 -95 -10 -120 -2 -25 -7 -79 -10 -120 -8
-111 -15 -181 -30 -310 -7 -58 -8 -64 -25 -175 -26 -167 -82 -425 -104 -479
-29 -70 -27 -122 5 -167 52 -73 192 -96 287 -46 26 14 67 30 90 36 57 16 87
46 106 109 9 30 31 68 48 85 31 32 31 33 31 137 -1 108 21 245 50 310 20 46
53 216 72 377 9 71 18 142 21 158 19 130 20 158 14 650 -1 155 0 165 20 204
11 22 20 47 20 55 0 8 8 23 19 33 10 10 32 37 49 61 17 24 48 57 68 73 21 16
55 59 76 94 70 117 150 161 268 147 48 -6 57 -11 69 -37 37 -76 3 -466 -55
-640 -14 -44 -49 -124 -76 -178 -44 -85 -57 -102 -103 -132 -28 -19 -57 -35
-64 -35 -6 0 -29 -18 -51 -41 -39 -41 -60 -44 -60 -8 0 21 -22 25 -38 7 -13
-16 -13 -130 0 -177 22 -79 106 -165 152 -155 11 3 31 7 44 10 85 17 207 76
269 129 21 17 58 44 82 60 60 37 89 71 175 200 120 179 175 299 190 415 2 19
10 62 16 95 35 178 -41 419 -176 552 -87 86 -129 105 -248 117 -120 11 -311
-80 -394 -189 -21 -28 -81 -94 -135 -147 l-97 -97 -1 37 c-1 62 -9 153 -20
227 -21 145 -36 174 -125 230 -47 30 -63 35 -112 34 -31 0 -70 -5 -87 -11z"/>
</g>
</svg>
